<?xml version="1.0" encoding="UTF-8" standalone="no"?>
<svg width="48px" height="24px" viewBox="0 0 48 24" version="1.1" xmlns="http://www.w3.org/2000/svg" xmlns:xlink="http://www.w3.org/1999/xlink" xmlns:sketch="http://www.bohemiancoding.com/sketch/ns">
    <!-- Generator: Sketch 3.2.2 (9983) - http://www.bohemiancoding.com/sketch -->
    <title>password_icon</title>
    <desc>Created with Sketch.</desc>
    <defs></defs>
    <g id="Page-1" stroke="none" stroke-width="1" fill="none" fill-rule="evenodd" sketch:type="MSPage">
        <g id="login" sketch:type="MSArtboardGroup" transform="translate(-572.000000, -474.000000)" stroke="#979797" stroke-width="2">
            <g id="password_icon" sketch:type="MSLayerGroup" transform="translate(573.000000, 475.000000)">
                <path d="M21.8248932,12.9655593 C20.8982119,18.1028281 16.4042226,22 11,22 C4.92486775,22 0,17.0751322 0,11 C0,4.92486775 4.92486775,0 11,0 C15.3685181,0 19.1422586,2.54654509 20.9177408,6.23615436 L45.0941649,6.23615441 C45.3465402,6.23615441 45.5374146,6.43652536 45.5374146,6.68369546 L45.5374146,16.2041143 C45.5374146,16.4528924 45.3366214,16.6505058 45.0889305,16.6490878 L38.8164029,16.6131782 C38.5747559,16.6117948 38.3679189,16.4105022 38.367919,16.1636558 L38.3679201,13.4125142 C38.3679202,13.1615331 38.1646392,12.9655593 37.9138793,12.9655593 L21.8248932,12.9655593 Z" id="Oval-3" sketch:type="MSShapeGroup"></path>
                <circle id="Oval-2" sketch:type="MSShapeGroup" cx="7.5" cy="9.5" r="3.5"></circle>
            </g>
        </g>
    </g>
</svg>