<?xml version="1.0" encoding="UTF-8" standalone="no"?>
<svg width="31px" height="34px" viewBox="0 0 31 34" version="1.1" xmlns="http://www.w3.org/2000/svg" xmlns:xlink="http://www.w3.org/1999/xlink" xmlns:sketch="http://www.bohemiancoding.com/sketch/ns">
    <!-- Generator: Sketch 3.2.2 (9983) - http://www.bohemiancoding.com/sketch -->
    <title>Reset_icon</title>
    <desc>Created with Sketch.</desc>
    <defs></defs>
    <g id="Page-1" stroke="none" stroke-width="1" fill="none" fill-rule="evenodd" sketch:type="MSPage">
        <g id="login" sketch:type="MSArtboardGroup" transform="translate(-845.000000, -469.000000)" fill-opacity="0.5" fill="#333333">
            <path d="M873.181818,487.723892 L873.181818,487.739514 C873.181818,494.594649 867.53653,500.171568 860.529121,500.171568 C853.521242,500.171568 847.871727,494.594649 847.871727,487.739514 C847.871727,480.928027 853.454545,475.381432 860.5,475.312054 L860.5,477.582703 C860.5,478.887568 861.69303,478.921108 862.353894,478.339432 L867.217136,474.795162 C867.217136,474.795162 867.746955,474.362351 867.746955,473.885892 C867.746955,473.385541 867.208212,472.976622 867.208212,472.976622 L862.355303,469.432351 C861.694439,468.850676 860.5,468.884676 860.5,470.189081 L860.5,472.554838 C852.045455,472.624216 845.081727,479.407676 845.081727,487.739054 C845.081727,496.114541 851.979697,502.927865 860.541333,502.927865 C869.10203,502.928324 876,496.115 876,487.739514 L876,487.723892 C876,487.723892 876,486.173216 874.57353,486.173216 C873.233015,486.172757 873.181818,487.723892 873.181818,487.723892 L873.181818,487.723892 Z" id="Reset_icon" sketch:type="MSShapeGroup"></path>
        </g>
    </g>
</svg>